<svg width="69" xmlns="http://www.w3.org/2000/svg" height="69" id="screenshot-ef4a0c1f-2d36-80e6-8007-7b3589f424d1" viewBox="0 0 69 69" xmlns:xlink="http://www.w3.org/1999/xlink" fill="none" version="1.1"><g id="shape-ef4a0c1f-2d36-80e6-8007-7b3589f424d1" width="210mm" height="210mm" xml:space="preserve" rx="0" ry="0" style="fill: rgb(0, 0, 0);"><g id="shape-ef4a0c1f-2d36-80e6-8007-7b3589f6120a" style="display: none;"><g class="fills" id="fills-ef4a0c1f-2d36-80e6-8007-7b3589f6120a"><rect width="69" height="68.99999999999989" x="0" transform="matrix(1.000000, 0.000000, 0.000000, 1.000000, 0.000000, 0.000000)" style="fill: none;" ry="0" fill="none" rx="0" y="0"/></g></g><g id="shape-ef4a0c1f-2d36-80e6-8007-7b3589f69a34"><g class="fills" id="fills-ef4a0c1f-2d36-80e6-8007-7b3589f69a34"><rect rx="15" ry="15" x="0" y="0" transform="matrix(1.000000, 0.000000, 0.000000, 1.000000, 0.000000, 0.000000)" width="69" height="68.99999999999989" style="stroke-width: 0.266666; fill: rgb(10, 83, 33); fill-opacity: 1;"/></g></g><g id="shape-ef4a0c1f-2d36-80e6-8007-7b3589f6d0ed" rx="0" ry="0" style="fill: rgb(0, 0, 0);"><g id="shape-ef4a0c1f-2d36-80e6-8007-7b3589f7bf4a"><g class="fills" id="fills-ef4a0c1f-2d36-80e6-8007-7b3589f7bf4a"><path d="M35.476806640625,42.8817138671875C35.752197265625,42.76318359375,36.111328125,42.98175048828125,36.2789306640625,43.3704833984375C36.44647216796875,43.75885009765625,36.3590087890625,44.1702880859375,36.08355712890625,44.28912353515625C35.80810546875,44.4078369140625,35.44891357421875,44.18902587890625,35.28143310546875,43.8006591796875C35.1138916015625,43.4119873046875,35.20135498046875,43.00048828125,35.476806640625,42.8817138671875Z" style="fill: rgb(255, 255, 255);"/></g></g><g id="shape-ef4a0c1f-2d36-80e6-8007-7b3589f841bf"><g class="fills" id="fills-ef4a0c1f-2d36-80e6-8007-7b3589f841bf"><path d="M32.4022216796875,43.3675537109375C32.56976318359375,42.9791259765625,32.92889404296875,42.76031494140625,33.20428466796875,42.87908935546875C33.47979736328125,42.99786376953125,33.56732177734375,43.4090576171875,33.39971923828125,43.7977294921875C33.232177734375,44.18646240234375,32.873046875,44.405029296875,32.59759521484375,44.28619384765625C32.32208251953125,44.16741943359375,32.234619140625,43.7562255859375,32.4022216796875,43.3675537109375Z" style="fill: rgb(255, 255, 255);"/></g></g><g id="shape-ef4a0c1f-2d36-80e6-8007-7b3589fdf408"><g class="fills" id="fills-ef4a0c1f-2d36-80e6-8007-7b3589fdf408"><path d="M34.22015380859375,7.582763671875C42.26251220703125,7.582763671875,46.5352783203125,12.25,48.75640869140625,16.841796875C49.8619384765625,19.127197265625,50.468017578125,21.404052734375,50.79815673828125,23.1038818359375C50.96368408203125,23.955322265625,51.060791015625,24.6663818359375,51.11676025390625,25.1669921875C51.14471435546875,25.417236328125,51.16229248046875,25.6153564453125,51.17327880859375,25.75244140625C51.178466796875,25.82080078125,51.18218994140625,25.8741455078125,51.18450927734375,25.9111328125C51.1856689453125,25.9295654296875,51.1865234375,25.94384765625,51.18707275390625,25.9541015625C51.1873779296875,25.959228515625,51.18768310546875,25.9632568359375,51.18768310546875,25.96630859375L51.18798828125,25.9698486328125L51.18798828125,25.9710693359375C51.18798828125,25.97119140625,51.18798828125,25.97119140625,51.184814453125,25.971435546875C51.181884765625,25.9716796875,51.1759033203125,25.971923828125,51.16436767578125,25.97265625C51.51123046875,26.535888671875,51.823486328125,27.14306640625,52.09222412109375,27.788330078125C53.56854248046875,31.33544921875,53.29803466796875,35.001708984375,51.640380859375,37.0989990234375C51.64068603515625,37.10797119140625,51.64093017578125,37.11749267578125,51.6412353515625,37.12725830078125L51.6412353515625,37.1275634765625C51.64215087890625,37.15008544921875,51.6427001953125,37.17510986328125,51.64385986328125,37.20196533203125C51.64959716796875,37.3616943359375,51.6588134765625,37.59613037109375,51.67236328125,37.89251708984375C51.68304443359375,38.12579345703125,51.69635009765625,38.39739990234375,51.71307373046875,38.70159912109375C52.57806396484375,39.2647705078125,52.9105224609375,40.1597900390625,52.93560791015625,41.03143310546875C52.9600830078125,41.89215087890625,52.6939697265625,42.78656005859375,52.30389404296875,43.522705078125C52.2479248046875,43.6279296875,52.18994140625,43.73602294921875,52.1300048828125,43.8468017578125C52.25311279296875,44.95947265625,52.40478515625,46.107666015625,52.59161376953125,47.2099609375C53.05010986328125,49.9140625,53.65533447265625,52.23114013671875,54.1455078125,53.8712158203125C54.39031982421875,54.69073486328125,54.60626220703125,55.34033203125,54.760498046875,55.78289794921875C54.83746337890625,56.00439453125,54.89892578125,56.17425537109375,54.9410400390625,56.28753662109375C54.9617919921875,56.3443603515625,54.9779052734375,56.38702392578125,54.9886474609375,56.41497802734375C54.99346923828125,56.42822265625,54.99749755859375,56.4383544921875,54.9998779296875,56.44464111328125L55.00042724609375,56.44586181640625L55.0030517578125,56.4527587890625L55.00360107421875,56.4542236328125L55.00360107421875,56.4544677734375C55.0032958984375,56.4544677734375,54.99951171875,56.4559326171875,54.93408203125,56.4813232421875L54.74786376953125,56.553955078125C54.65093994140625,56.59173583984375,54.516845703125,56.6439208984375,54.33203125,56.71600341796875C54.178955078125,56.77569580078125,54.06072998046875,56.821533203125,53.9696044921875,56.8572998046875C53.84765625,56.90460205078125,53.7738037109375,56.93341064453125,53.7291259765625,56.95074462890625C53.66021728515625,56.9775390625,53.66021728515625,56.9775390625,53.66021728515625,56.9775390625L53.65997314453125,56.97723388671875L53.65850830078125,56.9735107421875L53.65673828125,56.9688720703125L53.65472412109375,56.96337890625C53.65155029296875,56.95501708984375,53.64666748046875,56.942626953125,53.640625,56.92681884765625C53.62847900390625,56.894775390625,53.61090087890625,56.84808349609375,53.58843994140625,56.7872314453125C53.543701171875,56.66552734375,53.4788818359375,56.48736572265625,53.398681640625,56.25665283203125C53.23834228515625,55.7958984375,53.01580810546875,55.1260986328125,52.76409912109375,54.28411865234375C52.26092529296875,52.600830078125,51.64068603515625,50.2254638671875,51.17041015625,47.4510498046875C51.08392333984375,46.94036865234375,51.004638671875,46.42138671875,50.9324951171875,45.90118408203125C50.26123046875,46.97296142578125,49.45880126953125,48.13067626953125,48.53729248046875,49.2451171875C47.81060791015625,50.12396240234375,47.0018310546875,50.98583984375,46.1163330078125,51.76031494140625C46.12786865234375,51.790283203125,46.13885498046875,51.8199462890625,46.1497802734375,51.85028076171875C46.7120361328125,53.41680908203125,46.65496826171875,55.235107421875,46.39544677734375,56.765869140625C46.13653564453125,58.2938232421875,45.66278076171875,59.61151123046875,45.3228759765625,60.197998046875C44.88134765625,60.95953369140625,44.263427734375,61.263427734375,43.65911865234375,61.2593994140625C43.09796142578125,61.2559814453125,42.595703125,60.98602294921875,42.328125,60.693359375C42.18292236328125,60.53424072265625,42.095947265625,60.3173828125,42.0372314453125,60.1190185546875C41.97515869140625,59.9088134765625,41.928955078125,59.6617431640625,41.8941650390625,59.39642333984375C41.82452392578125,58.864990234375,41.79547119140625,58.21685791015625,41.793701171875,57.55303955078125C41.79052734375,56.3905029296875,41.87115478515625,55.13592529296875,41.98223876953125,54.30780029296875C40.18292236328125,55.0888671875,39.2296142578125,56.03668212890625,38.37518310546875,56.88641357421875C38.33056640625,56.93084716796875,38.2862548828125,56.97491455078125,38.2420654296875,57.018798828125C37.77215576171875,57.4847412109375,37.27642822265625,57.9625244140625,36.66217041015625,58.31109619140625C36.0262451171875,58.672119140625,35.29547119140625,58.87860107421875,34.360595703125,58.87860107421875C33.4256591796875,58.87860107421875,32.69525146484375,58.67181396484375,32.05975341796875,58.31085205078125C31.446044921875,57.96221923828125,30.95123291015625,57.484130859375,30.48236083984375,57.0181884765625L30.46624755859375,57.0023193359375L30.4476318359375,56.98388671875L30.42510986328125,56.96142578125L30.382080078125,56.91839599609375L30.35491943359375,56.891357421875L30.35113525390625,56.8875732421875L30.35040283203125,56.88702392578125C29.4468994140625,55.98651123046875,28.4324951171875,54.97589111328125,26.41632080078125,54.17022705078125C23.955078125,53.18670654296875,21.85711669921875,51.259765625,20.19146728515625,49.2451171875C19.1590576171875,47.99658203125,18.27587890625,46.69354248046875,17.559814453125,45.518310546875C17.473876953125,46.16619873046875,17.377685546875,46.81524658203125,17.26995849609375,47.4510498046875C16.79962158203125,50.2254638671875,16.17926025390625,52.600830078125,15.67620849609375,54.28411865234375C15.424560546875,55.1260986328125,15.201904296875,55.7958984375,15.04150390625,56.25665283203125C14.96136474609375,56.48736572265625,14.89666748046875,56.66552734375,14.85174560546875,56.7872314453125C14.8292236328125,56.84808349609375,14.81170654296875,56.894775390625,14.799560546875,56.92681884765625C14.79351806640625,56.942626953125,14.788818359375,56.95501708984375,14.7855224609375,56.96337890625L14.7802734375,56.97723388671875L14.7801513671875,56.9775390625C14.78009033203125,56.9775390625,14.78009033203125,56.9775390625,14.10833740234375,56.71600341796875C13.45562744140625,56.46173095703125,13.43719482421875,56.4544677734375,13.4366455078125,56.4544677734375L13.43670654296875,56.4542236328125L13.437255859375,56.4527587890625L13.43994140625,56.44586181640625L13.44000244140625,56.445556640625L13.44024658203125,56.4449462890625L13.4407958984375,56.44354248046875C13.44329833984375,56.4368896484375,13.447021484375,56.42742919921875,13.4517822265625,56.41497802734375C13.46240234375,56.38702392578125,13.47845458984375,56.3443603515625,13.4993896484375,56.28753662109375C13.54132080078125,56.17425537109375,13.60284423828125,56.00439453125,13.67987060546875,55.78289794921875C13.83392333984375,55.34033203125,14.04986572265625,54.69073486328125,14.29486083984375,53.8712158203125C14.7850341796875,52.23114013671875,15.39013671875,49.9140625,15.84857177734375,47.2099609375C16.06085205078125,45.95745849609375,16.22796630859375,44.64605712890625,16.3590087890625,43.39434814453125C16.00518798828125,42.68389892578125,15.76995849609375,41.842529296875,15.79315185546875,41.03143310546875C15.81494140625,40.26934814453125,16.072021484375,39.48907470703125,16.71466064453125,38.92852783203125C16.7371826171875,38.53179931640625,16.75469970703125,38.18231201171875,16.7679443359375,37.89251708984375C16.781494140625,37.59613037109375,16.79071044921875,37.3616943359375,16.79644775390625,37.20196533203125C16.7974853515625,37.17510986328125,16.79827880859375,37.15032958984375,16.79901123046875,37.12786865234375C16.7994384765625,37.11773681640625,16.7996826171875,37.1082763671875,16.800048828125,37.0989990234375C15.142333984375,35.001708984375,14.87188720703125,31.33544921875,16.3482666015625,27.788330078125C16.6168212890625,27.14306640625,16.928955078125,26.535888671875,17.27593994140625,25.97265625C17.252197265625,25.9713134765625,17.252197265625,25.97119140625,17.252197265625,25.9710693359375L17.25225830078125,25.9698486328125L17.25244140625,25.96630859375C17.2525634765625,25.9638671875,17.25274658203125,25.960693359375,17.2529296875,25.95703125L17.25311279296875,25.9541015625C17.25372314453125,25.94384765625,17.2545166015625,25.9295654296875,17.2557373046875,25.9111328125C17.258056640625,25.8741455078125,17.26177978515625,25.82080078125,17.26715087890625,25.75244140625C17.27789306640625,25.6153564453125,17.29559326171875,25.417236328125,17.32354736328125,25.1669921875C17.37939453125,24.6663818359375,17.4765625,23.955322265625,17.64208984375,23.1038818359375C17.972412109375,21.404052734375,18.57843017578125,19.127197265625,19.68402099609375,16.841796875C21.90509033203125,12.25,26.177734375,7.582763671875,34.22015380859375,7.582763671875ZM51.05938720703125,39.66064453125C50.35784912109375,39.46112060546875,49.7205810546875,39.94439697265625,49.7205810546875,39.94439697265625C48.7275390625,40.533447265625,46.79510498046875,41.23095703125,44.83782958984375,41.74908447265625C42.88897705078125,42.26519775390625,40.75054931640625,42.64813232421875,39.3533935546875,42.5186767578125C37.72833251953125,42.3681640625,36.1168212890625,41.84539794921875,35.20703125,41.5074462890625C34.93585205078125,41.45928955078125,34.66412353515625,41.43280029296875,34.3931884765625,41.43280029296875C34.08251953125,41.43280029296875,33.7708740234375,41.4676513671875,33.46014404296875,41.5302734375C32.54046630859375,41.86846923828125,30.96435546875,42.37164306640625,29.37530517578125,42.5186767578125C27.97808837890625,42.64813232421875,25.83966064453125,42.26519775390625,23.89080810546875,41.74908447265625C21.93365478515625,41.23095703125,20.00115966796875,40.533447265625,19.00799560546875,39.94439697265625C18.71435546875,39.7705078125,17.96917724609375,39.50201416015625,17.559814453125,39.66064453125C17.15032958984375,39.8192138671875,16.99127197265625,40.2078857421875,16.99127197265625,40.6553955078125C16.99127197265625,41.66461181640625,17.83746337890625,43.10687255859375,17.83746337890625,43.10687255859375C18.62689208984375,44.5684814453125,19.80499267578125,46.515380859375,21.30255126953125,48.32647705078125C22.89715576171875,50.2548828125,24.80999755859375,51.9757080078125,26.9512939453125,52.83148193359375C29.243408203125,53.74725341796875,30.43096923828125,54.93145751953125,31.3602294921875,55.85791015625L31.3602294921875,55.85791015625C31.40692138671875,55.90435791015625,31.452880859375,55.9501953125,31.498291015625,55.99542236328125C31.97412109375,56.468017578125,32.34600830078125,56.815185546875,32.77203369140625,57.057373046875C33.17633056640625,57.2872314453125,33.65869140625,57.4368896484375,34.360595703125,57.4368896484375C35.06243896484375,57.4368896484375,35.54547119140625,57.2872314453125,35.95062255859375,57.05712890625C36.37750244140625,56.81494140625,36.7503662109375,56.46746826171875,37.22711181640625,55.994873046875C37.245361328125,55.97674560546875,37.263671875,55.95855712890625,37.28204345703125,55.94036865234375C37.29541015625,55.9271240234375,37.30889892578125,55.91357421875,37.32244873046875,55.9002685546875L37.36474609375,55.85821533203125L37.36614990234375,55.85675048828125L37.36639404296875,55.8564453125L37.366455078125,55.8564453125C38.29718017578125,54.9302978515625,39.48638916015625,53.74700927734375,41.77740478515625,52.83148193359375C41.816650390625,52.81561279296875,41.85595703125,52.7998046875,41.89508056640625,52.7833251953125C41.79742431640625,52.56072998046875,41.6632080078125,52.3692626953125,41.5087890625,52.2161865234375C41.2725830078125,51.98199462890625,41.008056640625,51.85113525390625,40.75799560546875,51.815673828125C38.7415771484375,52.56591796875,37.84637451171875,53.07574462890625,37.23333740234375,53.44683837890625C37.1741943359375,53.4825439453125,37.1168212890625,53.5174560546875,37.06036376953125,53.55206298828125C36.50201416015625,53.8931884765625,36.04425048828125,54.1728515625,35.11004638671875,54.40203857421875C34.529296875,54.57421875,33.91107177734375,54.57421875,33.330322265625,54.40203857421875C32.3961181640625,54.173095703125,31.9383544921875,53.8931884765625,31.38006591796875,53.55206298828125C31.3236083984375,53.5174560546875,31.26611328125,53.4825439453125,31.20703125,53.44683837890625C30.59356689453125,53.07537841796875,29.69775390625,52.56536865234375,27.6788330078125,51.814208984375C25.318359375,50.93621826171875,23.24017333984375,48.9091796875,21.6678466796875,46.9735107421875C20.08050537109375,45.0191650390625,18.934814453125,43.064208984375,18.460205078125,42.21246337890625C18.23321533203125,41.8050537109375,18.43646240234375,41.42645263671875,18.599853515625,41.264404296875C18.7685546875,41.09686279296875,19.1500244140625,40.9036865234375,19.55230712890625,41.1337890625C20.37469482421875,41.60406494140625,22.23358154296875,42.63201904296875,23.35845947265625,43.00946044921875C24.0946044921875,43.25653076171875,24.814208984375,43.36932373046875,25.64898681640625,43.50048828125L25.6492919921875,43.50048828125L25.6494140625,43.50048828125L25.65069580078125,43.50079345703125L25.65386962890625,43.50103759765625C25.8204345703125,43.52728271484375,25.9915771484375,43.55413818359375,26.16839599609375,43.58294677734375C27.21661376953125,43.753662109375,28.38958740234375,43.98492431640625,29.7579345703125,44.5506591796875C30.815185546875,44.9874267578125,32.0997314453125,45.91650390625,33.27862548828125,47.89569091796875C33.42364501953125,48.1390380859375,33.63739013671875,48.243408203125,33.83111572265625,48.29010009765625L33.88836669921875,48.299072265625C34.10821533203125,48.33306884765625,34.33203125,48.33306884765625,34.5518798828125,48.299072265625L34.6092529296875,48.29010009765625C34.802978515625,48.243408203125,35.01666259765625,48.1390380859375,35.16168212890625,47.89569091796875C36.340576171875,45.91650390625,37.6251220703125,44.9874267578125,38.682373046875,44.5506591796875C40.05072021484375,43.98492431640625,41.2237548828125,43.753662109375,42.27191162109375,43.58294677734375C42.44921875,43.55413818359375,42.62078857421875,43.5269775390625,42.78802490234375,43.50079345703125L42.79095458984375,43.50048828125C43.6259765625,43.36956787109375,44.34564208984375,43.25653076171875,45.081787109375,43.00946044921875C46.20660400390625,42.63201904296875,48.06549072265625,41.60406494140625,48.88787841796875,41.1337890625L48.90692138671875,41.12310791015625C49.30224609375,40.90972900390625,49.67449951171875,41.0994873046875,49.84051513671875,41.264404296875C50.0037841796875,41.42645263671875,50.20703125,41.8050537109375,49.9801025390625,42.21246337890625C49.5054931640625,43.064208984375,48.359619140625,45.0191650390625,46.7725830078125,46.9735107421875C46.097900390625,47.803955078125,45.33001708984375,48.65142822265625,44.4869384765625,49.41754150390625C44.5347900390625,49.46484375,44.5838623046875,49.51409912109375,44.6334228515625,49.5654296875C44.87933349609375,49.81890869140625,45.14752197265625,50.12396240234375,45.39837646484375,50.4691162109375C46.12005615234375,49.81396484375,46.7977294921875,49.08648681640625,47.426025390625,48.32647705078125C48.77685546875,46.69268798828125,49.86767578125,44.948486328125,50.64788818359375,43.5498046875C50.64788818359375,43.5498046875,51.702392578125,41.4005126953125,51.640380859375,40.6553955078125C51.640380859375,40.6553955078125,51.7606201171875,39.86016845703125,51.05938720703125,39.66064453125ZM47.50469970703125,43.5166015625C46.822509765625,43.85888671875,46.112060546875,44.1844482421875,45.54052734375,44.37615966796875C44.67864990234375,44.6654052734375,43.82000732421875,44.7994384765625,42.98321533203125,44.9300537109375C42.8226318359375,44.95513916015625,42.66259765625,44.97991943359375,42.50372314453125,45.005859375C41.5,45.16943359375,40.45208740234375,45.3790283203125,39.23309326171875,45.883056640625C38.4892578125,46.1904296875,37.43499755859375,46.896240234375,36.4002685546875,48.63348388671875C35.98162841796875,49.336181640625,35.34307861328125,49.60406494140625,34.90185546875,49.70208740234375L34.879150390625,49.70733642578125L34.85614013671875,49.71075439453125L34.7730712890625,49.7237548828125C34.41815185546875,49.77880859375,34.05694580078125,49.780517578125,33.70159912109375,49.72894287109375L33.667236328125,49.7237548828125L33.5611572265625,49.70733642578125L33.5384521484375,49.70208740234375C33.09722900390625,49.60406494140625,32.45867919921875,49.336181640625,32.0400390625,48.63348388671875C31.0052490234375,46.896240234375,29.9510498046875,46.1904296875,29.20721435546875,45.883056640625C27.9881591796875,45.3790283203125,26.9403076171875,45.16943359375,25.93658447265625,45.005859375C25.77764892578125,44.97991943359375,25.6177978515625,44.95513916015625,25.4571533203125,44.9300537109375L25.45709228515625,44.9300537109375C24.62017822265625,44.7994384765625,23.76165771484375,44.6654052734375,22.89971923828125,44.37615966796875C22.32830810546875,44.1844482421875,21.617919921875,43.85888671875,20.93548583984375,43.5166015625C21.44281005859375,44.29193115234375,22.068115234375,45.1798095703125,22.78680419921875,46.06439208984375C24.3145751953125,47.945556640625,26.19171142578125,49.722900390625,28.18145751953125,50.46307373046875C30.28668212890625,51.24615478515625,31.26397705078125,51.7960205078125,31.95343017578125,52.21331787109375C32.01483154296875,52.25048828125,32.07293701171875,52.28594970703125,32.12847900390625,52.3197021484375L32.130126953125,52.32086181640625C32.66632080078125,52.6478271484375,32.9644775390625,52.82977294921875,33.68951416015625,53.00567626953125L33.7093505859375,53.01055908203125L33.7288818359375,53.0166015625C34.0491943359375,53.11376953125,34.39117431640625,53.11376953125,34.71142578125,53.0166015625L34.73095703125,53.01055908203125L34.75079345703125,53.00567626953125C35.47576904296875,52.82977294921875,35.77398681640625,52.6478271484375,36.31011962890625,52.32086181640625L36.3101806640625,52.32086181640625L36.31048583984375,52.320556640625L36.3480224609375,52.29779052734375L36.380615234375,52.27789306640625C36.41497802734375,52.2568359375,36.4503173828125,52.2354736328125,36.48681640625,52.21331787109375C36.92181396484375,51.95001220703125,37.47137451171875,51.63397216796875,38.34637451171875,51.23980712890625C38.33831787109375,51.21881103515625,38.33074951171875,51.1971435546875,38.32391357421875,51.1749267578125C38.24029541015625,50.90362548828125,38.27655029296875,50.61474609375,38.42041015625,50.3450927734375C38.6529541015625,49.9085693359375,39.107177734375,49.46856689453125,39.87030029296875,49.0325927734375C41.04669189453125,48.36016845703125,41.9547119140625,48.22930908203125,42.6014404296875,48.2984619140625C42.92242431640625,48.33306884765625,43.16864013671875,48.41583251953125,43.34161376953125,48.49627685546875C43.3433837890625,48.49688720703125,43.34478759765625,48.4976806640625,43.34649658203125,48.49859619140625L43.34710693359375,48.49859619140625L43.348876953125,48.499755859375L43.35003662109375,48.50030517578125C44.17608642578125,47.7705078125,44.95172119140625,46.9285888671875,45.653564453125,46.06439208984375C46.37213134765625,45.1798095703125,46.99755859375,44.29193115234375,47.50469970703125,43.5166015625ZM34.22015380859375,9.0244140625C26.89398193359375,9.0244140625,23.0426025390625,13.209228515625,20.9818115234375,17.469482421875C19.94647216796875,19.6099853515625,19.37213134765625,21.7591552734375,19.05731201171875,23.37890625C19.02783203125,23.530517578125,19.00067138671875,23.67724609375,18.9757080078125,23.818603515625C20.98419189453125,21.833984375,23.47723388671875,20.9871826171875,25.56072998046875,21.854248046875C28.7347412109375,23.17529296875,29.7564697265625,27.9739990234375,27.84259033203125,32.5723876953125L27.820068359375,32.626220703125C26.158935546875,36.56878662109375,22.87103271484375,39.06866455078125,19.9686279296875,38.82965087890625C20.85797119140625,39.29730224609375,22.49456787109375,39.88812255859375,24.25982666015625,40.35552978515625C25.1800537109375,40.59918212890625,26.09759521484375,40.79901123046875,26.92779541015625,40.93048095703125C26.83056640625,40.65423583984375,26.7960205078125,40.358154296875,26.8236083984375,40.063720703125C26.90814208984375,39.16265869140625,27.57073974609375,38.2982177734375,28.68902587890625,38.0767822265625C29.28570556640625,37.9588623046875,29.91534423828125,37.91705322265625,30.48016357421875,38.0594482421875C31.39593505859375,38.29071044921875,32.2176513671875,38.4248046875,32.80999755859375,38.50091552734375C33.1058349609375,38.53900146484375,33.34375,38.5623779296875,33.50665283203125,38.57623291015625C33.58807373046875,38.5831298828125,33.65069580078125,38.5877685546875,33.6923828125,38.59063720703125C33.7132568359375,38.592041015625,33.7288818359375,38.5928955078125,33.73895263671875,38.59344482421875L33.74200439453125,38.59381103515625L35.04437255859375,38.59381103515625L35.04736328125,38.59344482421875C35.0574951171875,38.5928955078125,35.0731201171875,38.592041015625,35.09393310546875,38.59063720703125C35.1356201171875,38.5877685546875,35.1982421875,38.5831298828125,35.2796630859375,38.57623291015625C35.44256591796875,38.5623779296875,35.68048095703125,38.53900146484375,35.97637939453125,38.50091552734375C36.56866455078125,38.4248046875,37.390380859375,38.29071044921875,38.30615234375,38.0594482421875C38.87103271484375,37.91705322265625,39.50067138671875,37.9588623046875,40.0972900390625,38.0767822265625C41.21551513671875,38.2982177734375,41.87823486328125,39.16265869140625,41.96270751953125,40.063720703125C41.98992919921875,40.35467529296875,41.95654296875,40.6473388671875,41.86187744140625,40.92095947265625C42.67584228515625,40.7891845703125,43.5711669921875,40.5931396484375,44.46875,40.35552978515625C46.29339599609375,39.87255859375,47.98046875,39.257568359375,48.846923828125,38.782958984375C45.84442138671875,39.28497314453125,42.32293701171875,36.717529296875,40.59771728515625,32.5723876953125C38.69134521484375,27.991943359375,39.69757080078125,23.212890625,42.842529296875,21.869873046875L42.87969970703125,21.854248046875C44.9630126953125,20.9871826171875,47.45623779296875,21.833984375,49.46453857421875,23.8187255859375C49.439453125,23.67724609375,49.41241455078125,23.530517578125,49.38299560546875,23.37890625C49.06805419921875,21.7591552734375,48.49371337890625,19.6099853515625,47.4586181640625,17.469482421875C45.3978271484375,13.209228515625,41.5462646484375,9.0244140625,34.22015380859375,9.0244140625ZM25.00677490234375,23.185302734375C23.98175048828125,22.7587890625,22.6602783203125,22.913330078125,21.26263427734375,23.8135986328125C19.87103271484375,24.7099609375,18.5380859375,26.27880859375,17.67926025390625,28.3424072265625C16.82037353515625,30.4058837890625,16.6466064453125,32.457275390625,16.99127197265625,34.076171875C17.33746337890625,35.70220947265625,18.1590576171875,36.7486572265625,19.18408203125,37.17547607421875C19.85052490234375,37.45281982421875,20.64239501953125,37.48455810546875,21.49896240234375,37.22503662109375C21.43292236328125,37.193603515625,21.368896484375,37.15753173828125,21.30731201171875,37.1163330078125C20.1619873046875,36.35107421875,20.26824951171875,34.1822509765625,21.54449462890625,32.272216796875C22.82080078125,30.3621826171875,24.7838134765625,29.43408203125,25.9290771484375,30.199462890625C26.35650634765625,30.4849853515625,26.609619140625,30.966064453125,26.69256591796875,31.556396484375C27.3934326171875,29.65087890625,27.5184326171875,27.7825927734375,27.19952392578125,26.2845458984375C26.85333251953125,24.658447265625,26.03173828125,23.6119384765625,25.00677490234375,23.185302734375ZM47.177734375,23.8135986328125C45.7801513671875,22.913330078125,44.45867919921875,22.7587890625,43.43365478515625,23.185302734375C42.4085693359375,23.6119384765625,41.58697509765625,24.658447265625,41.24078369140625,26.2845458984375C40.92181396484375,27.7825927734375,41.04681396484375,29.65087890625,41.7476806640625,31.556396484375C41.8306884765625,30.966064453125,42.08380126953125,30.4849853515625,42.51123046875,30.199462890625C43.656494140625,29.43408203125,45.6195068359375,30.3621826171875,46.895751953125,32.272216796875C48.17193603515625,34.1822509765625,48.2783203125,36.35107421875,47.133056640625,37.1163330078125C47.0712890625,37.15753173828125,47.00732421875,37.193603515625,46.9412841796875,37.22503662109375C47.7979736328125,37.48455810546875,48.5897216796875,37.45281982421875,49.256103515625,37.17547607421875C50.2811279296875,36.7486572265625,51.1029052734375,35.70220947265625,51.448974609375,34.076171875C51.7938232421875,32.457275390625,51.619873046875,30.4058837890625,50.76092529296875,28.3424072265625C49.90228271484375,26.27880859375,48.5692138671875,24.7099609375,47.177734375,23.8135986328125ZM44.55523681640625,57.09808349609375C44.62274169921875,56.75262451171875,44.7034912109375,56.2713623046875,44.75738525390625,55.72698974609375C44.75738525390625,55.72698974609375,45.12823486328125,53.6033935546875,44.6334228515625,52.40155029296875C44.138916015625,51.19976806640625,41.780029296875,49.69403076171875,41.780029296875,49.69403076171875C41.57196044921875,49.58013916015625,41.3724365234375,49.4801025390625,41.19012451171875,49.3941650390625C41.775390625,49.17962646484375,42.21087646484375,49.15570068359375,42.50604248046875,49.18743896484375L42.50830078125,49.1888427734375L42.50860595703125,49.1888427734375C42.5772705078125,49.22900390625,43.80706787109375,49.72894287109375,44.75738525390625,50.89154052734375C45.41339111328125,51.69427490234375,45.739501953125,52.16021728515625,45.739501953125,53.67401123046875C45.739501953125,55.18780517578125,45.5142822265625,56.61651611328125,45.5142822265625,56.61651611328125C45.26629638671875,58.0804443359375,44.8182373046875,59.2860107421875,44.54949951171875,59.7496337890625C44.25567626953125,60.2568359375,43.92236328125,60.3673095703125,43.66485595703125,60.3658447265625C43.36468505859375,60.36383056640625,43.095703125,60.20806884765625,42.9884033203125,60.0904541015625L42.9884033203125,60.0904541015625C42.98724365234375,60.0889892578125,42.97515869140625,60.0743408203125,42.95697021484375,60.0360107421875C42.93768310546875,59.99560546875,42.91632080078125,59.939697265625,42.8944091796875,59.8658447265625C42.8505859375,59.716796875,42.81195068359375,59.5201416015625,42.780517578125,59.28021240234375C42.71771240234375,58.80157470703125,42.68939208984375,58.19549560546875,42.68768310546875,57.55078125C42.68768310546875,57.55078125,42.68768310546875,56.06005859375,42.8944091796875,54.06329345703125C43.2064208984375,51.05389404296875,39.3533935546875,50.4691162109375,39.3533935546875,50.4691162109375L39.35986328125,50.45697021484375C39.363525390625,50.4500732421875,39.3671875,50.44317626953125,39.37078857421875,50.4365234375L39.37200927734375,50.4342041015625C39.4744873046875,50.2430419921875,39.56011962890625,50.11529541015625,40.13720703125,49.9134521484375C40.13720703125,49.9134521484375,43.42755126953125,51.5281982421875,43.80706787109375,53.0396728515625C44.09130859375,54.17169189453125,43.86785888671875,55.6387939453125,43.86785888671875,55.6387939453125C43.8173828125,56.14886474609375,43.74127197265625,56.60186767578125,43.6778564453125,56.9273681640625C43.64642333984375,57.0897216796875,43.61785888671875,57.2197265625,43.59765625,57.30828857421875C43.58758544921875,57.3526611328125,43.57952880859375,57.38671875,43.57403564453125,57.4091796875C43.5711669921875,57.42010498046875,43.56915283203125,57.428466796875,43.5679931640625,57.4339599609375C43.567138671875,57.43658447265625,43.56683349609375,57.4385986328125,43.5665283203125,57.43975830078125L43.56622314453125,57.44061279296875L43.56622314453125,57.44091796875C43.50482177734375,57.679931640625,43.6490478515625,57.92327880859375,43.8880615234375,57.9847412109375C44.1270751953125,58.046142578125,44.3707275390625,57.9019775390625,44.431884765625,57.66290283203125L44.35693359375,57.64361572265625C44.43218994140625,57.66290283203125,44.43218994140625,57.66265869140625,44.43218994140625,57.66265869140625L44.43218994140625,57.66265869140625L44.43218994140625,57.662353515625L44.43243408203125,57.6614990234375L44.4329833984375,57.6591796875L44.43389892578125,57.6553955078125L44.43499755859375,57.65081787109375C44.436767578125,57.64361572265625,44.43939208984375,57.633544921875,44.4425048828125,57.6202392578125C44.44598388671875,57.60552978515625,44.45062255859375,57.58740234375,44.45574951171875,57.56549072265625C44.4598388671875,57.54815673828125,44.46417236328125,57.52886962890625,44.46905517578125,57.5078125C44.49127197265625,57.41064453125,44.5218505859375,57.27105712890625,44.55523681640625,57.09808349609375Z" fill-rule="evenodd" clip-rule="evenodd" style="fill: rgb(255, 255, 255);"/></g></g></g><g id="shape-ef4a0c1f-2d36-80e6-8007-7b3589fe460a"><g class="fills" id="fills-ef4a0c1f-2d36-80e6-8007-7b3589fe460a"><ellipse cx="22.16312280724742" cy="30.161992750676575" rx="7.93532856931256" ry="5.373457123048013" transform="matrix(-0.528579, 0.848884, -0.756035, -0.654531, 56.681624, 31.090020)" style="stroke-width: 0.209531; fill: rgb(255, 255, 255); fill-opacity: 1;"/></g></g><g id="shape-ef4a0c1f-2d36-80e6-8007-7b3589feb99b"><g class="fills" id="fills-ef4a0c1f-2d36-80e6-8007-7b3589feb99b"><ellipse cx="24.314857833121664" cy="31.910649389255468" rx="3.5360857133428" ry="2.394628562600701" transform="matrix(-0.528579, 0.848884, -0.756035, -0.654531, 61.292767, 32.156652)" style="stroke-width: 0.0933707; fill: rgb(10, 83, 33); fill-opacity: 1;"/></g></g><g id="shape-ef4a0c1f-2d36-80e6-8007-7b3589ff28c2"><g class="fills" id="fills-ef4a0c1f-2d36-80e6-8007-7b3589ff28c2"><ellipse cx="46.50529526098222" cy="30.206080146865645" rx="7.935328569312503" ry="5.373457123048013" transform="matrix(0.528579, 0.848884, 0.756035, -0.654531, -0.913301, 10.499282)" style="stroke-width: 0.209531; fill: rgb(255, 255, 255); fill-opacity: 1;"/></g></g><g id="shape-ef4a0c1f-2d36-80e6-8007-7b3589ff7c08"><g class="fills" id="fills-ef4a0c1f-2d36-80e6-8007-7b3589ff7c08"><ellipse cx="44.08842419409365" cy="31.84514667552378" rx="3.5360857133428567" ry="2.394628562600815" transform="matrix(0.528579, 0.848884, 0.756035, -0.654531, -3.291857, 15.262811)" style="stroke-width: 0.0933707; fill: rgb(10, 83, 33); fill-opacity: 1;"/></g></g></g></svg>